<?xml version="1.0" encoding="utf-8"?>
<!-- Generator: Adobe Illustrator 15.0.0, SVG Export Plug-In . SVG Version: 6.00 Build 0)  -->
<!DOCTYPE svg PUBLIC "-//W3C//DTD SVG 1.1//EN" "http://www.w3.org/Graphics/SVG/1.1/DTD/svg11.dtd">
<svg version="1.1" id="图形" xmlns="http://www.w3.org/2000/svg" xmlns:xlink="http://www.w3.org/1999/xlink" x="0px" y="0px"
	 width="1000.637px" height="1000.678px" viewBox="15.167 -16.333 1000.637 1000.678"
	 enable-background="new 15.167 -16.333 1000.637 1000.678" xml:space="preserve">
<g>
	<g>
		<path fill="#0096D9" d="M285.461,531.554c103.707,0,267.453,72.479,427.481,72.479c130.23,0,196.49-58.862,196.49-138.222
			c0-215.742-182.079-387.287-393.489-387.287c-6.569,0-6.841,6.847,0,7.745c163.694,20.985,291.523,165.976,291.523,288.879
			c0,33.808-22.343,62.932-61.061,62.932c-106.293,0-268.26-72.468-427.475-72.468c-130.217,0-196.53,58.823-196.53,138.258
			c0,215.677,182.12,387.214,393.542,387.214c6.339,0,6.166-6.983,0-7.741c-162.741-19.146-291.542-165.945-291.542-288.866
			C224.402,560.658,246.776,531.554,285.461,531.554"/>
	</g>
	<g>
		<path fill="#8FC31F" d="M468.679,119.831c-86.373-7.43-166.142,19.56-214.002,54.337c-4.42,3.14-1.661,8.323,2.99,5.938
			c99.3-51.009,276.96-30.827,316.776,38.022c5.307,9.16,1.522,15.214-25.597,8.955c-197.079-45.37-339.218,2.696-412.319,122.873
			c-1.819,2.935,1.085,4.112,3.745,1.171c96.382-107.074,317.881-70.663,485.988-22.583c98.274,28.118,105.446-19.511,82.541-68.936
			C687.155,212.893,609.184,131.86,468.679,119.831"/>
	</g>
	<g>
		<path fill="#0065AC" d="M563.176,849.849c86.406,7.43,167.499-19.561,215.318-54.33c4.434-3.187,1.721-8.37-2.977-5.949
			c-99.286,51.05-278.311,30.868-318.086-38.019c-5.306-9.163-1.508-15.243,25.591-8.955
			c197.119,45.317,339.206-2.726,412.305-122.837c1.807-3.037-1.064-4.148-3.73-1.246
			c-96.377,107.113-317.895,70.685-485.982,22.643c-98.281-28.138-105.453,19.498-82.568,68.851
			C344.714,756.735,422.671,837.784,563.176,849.849"/>
	</g>
</g>
</svg>
