<svg version="1.2" width="1000" height="1000" contentScriptType="text/ecmascript" xmlns:xlink="http://www.w3.org/1999/xlink" baseProfile="tiny" zoomAndPan="magnify" contentStyleType="text/css" preserveAspectRatio="xMidYMid meet" xmlns="http://www.w3.org/2000/svg" stroke="none"><path fill="rgba(0,94,166,1)" d="M0 500.00000000000006 A500 500 0 0 0 500.00000000000006 1000 L500 950 A450 450 0 0 1 50 500.00000000000006 Z"></path><path fill="rgba(0,94,166,0.9)" d="M500.00000000000006 1000 A500 500 0 0 0 578.2172325201154 993.8441702975689 L570.395509268104 944.459753267812 A450 450 0 0 1 500 950 Z"></path><path fill="rgba(0,94,166,0.8)" d="M578.2172325201154 993.8441702975689 A500 500 0 0 0 654.5084971874737 975.5282581475767 L639.0576474687264 927.9754323328191 A450 450 0 0 1 570.395509268104 944.459753267812 Z"></path><path fill="rgba(0,94,166,0.7)" d="M654.5084971874737 975.5282581475767 A500 500 0 0 0 726.9952498697735 945.5032620941838 L704.2957248827961 900.9529358847656 A450 450 0 0 1 639.0576474687264 927.9754323328191 Z"></path><path fill="rgba(0,94,166,0.6)" d="M726.9952498697735 945.5032620941838 A500 500 0 0 0 793.8926261462366 904.5084971874737 L764.5033635316129 864.0576474687264 A450 450 0 0 1 704.2957248827961 900.9529358847656 Z"></path><path fill="rgba(0,94,166,0.5)" d="M793.8926261462366 904.5084971874737 A500 500 0 0 0 853.5533905932738 853.5533905932737 L818.1980515339465 818.1980515339463 A450 450 0 0 1 764.5033635316129 864.0576474687264 Z"></path><path fill="rgba(0,94,166,0.4)" d="M853.5533905932738 853.5533905932737 A500 500 0 0 0 904.5084971874737 793.8926261462366 L864.0576474687264 764.5033635316129 A450 450 0 0 1 818.1980515339465 818.1980515339463 Z"></path><path fill="rgba(0,94,166,0.30000000000000004)" d="M904.5084971874737 793.8926261462366 A500 500 0 0 0 945.5032620941839 726.9952498697734 L900.9529358847656 704.2957248827961 A450 450 0 0 1 864.0576474687264 764.5033635316129 Z"></path><path fill="rgba(0,94,166,0.19999999999999996)" d="M945.5032620941839 726.9952498697734 A500 500 0 0 0 975.5282581475767 654.5084971874737 L927.9754323328191 639.0576474687264 A450 450 0 0 1 900.9529358847656 704.2957248827961 Z"></path><path fill="rgba(0,94,166,0.09999999999999998)" d="M975.5282581475767 654.5084971874737 A500 500 0 0 0 993.8441702975689 578.2172325201154 L944.459753267812 570.3955092681039 A450 450 0 0 1 927.9754323328191 639.0576474687264 Z"></path><path fill="rgba(0,94,166,0)" d="M993.8441702975689 578.2172325201154 A500 500 0 0 0 1000 500 L950 500 A450 450 0 0 1 944.459753267812 570.3955092681039 Z"></path><path fill="rgba(133,193,47,1)" d="M1000 500 A500 500 0 0 0 499.9999999999999 0 L499.99999999999994 50 A450 450 0 0 1 950 500 Z"></path><path fill="rgba(133,193,47,0.9)" d="M499.9999999999999 0 A500 500 0 0 0 421.78276747988446 6.155829702431163 L429.604490731896 55.54024673218805 A450 450 0 0 1 499.99999999999994 50 Z"></path><path fill="rgba(133,193,47,0.8)" d="M421.78276747988446 6.155829702431163 A500 500 0 0 0 345.4915028125262 24.471741852423236 L360.9423525312736 72.02456766718092 A450 450 0 0 1 429.604490731896 55.54024673218805 Z"></path><path fill="rgba(133,193,47,0.7)" d="M345.4915028125262 24.471741852423236 A500 500 0 0 0 273.0047501302265 54.49673790581613 L295.7042751172039 99.04706411523449 A450 450 0 0 1 360.9423525312736 72.02456766718092 Z"></path><path fill="rgba(133,193,47,0.6)" d="M273.0047501302265 54.49673790581613 A500 500 0 0 0 206.10737385376336 95.49150281252633 L235.49663646838707 135.94235253127368 A450 450 0 0 1 295.7042751172039 99.04706411523449 Z"></path><path fill="rgba(133,193,47,0.5)" d="M206.10737385376336 95.49150281252633 A500 500 0 0 0 146.44660940672617 146.44660940672628 L181.80194846605355 181.80194846605366 A450 450 0 0 1 235.49663646838707 135.94235253127368 Z"></path><path fill="rgba(133,193,47,0.4)" d="M146.44660940672617 146.44660940672628 A500 500 0 0 0 95.49150281252628 206.10737385376348 L135.94235253127363 235.49663646838712 A450 450 0 0 1 181.80194846605355 181.80194846605366 Z"></path><path fill="rgba(133,193,47,0.30000000000000004)" d="M95.49150281252628 206.10737385376348 A500 500 0 0 0 54.49673790581596 273.00475013022685 L99.04706411523432 295.7042751172042 A450 450 0 0 1 135.94235253127363 235.49663646838712 Z"></path><path fill="rgba(133,193,47,0.19999999999999996)" d="M54.49673790581596 273.00475013022685 A500 500 0 0 0 24.471741852423236 345.49150281252616 L72.02456766718092 360.9423525312735 A450 450 0 0 1 99.04706411523432 295.7042751172042 Z"></path><path fill="rgba(133,193,47,0.09999999999999998)" d="M24.471741852423236 345.49150281252616 A500 500 0 0 0 6.155829702431106 421.7827674798846 L55.540246732187995 429.6044907318962 A450 450 0 0 1 72.02456766718092 360.9423525312735 Z"></path><path fill="rgba(133,193,47,0)" d="M6.155829702431106 421.7827674798846 A500 500 0 0 0 0 500.00000000000006 L50 500.00000000000006 A450 450 0 0 1 55.540246732187995 429.6044907318962 Z"></path></svg>